# xmcd
#
# Track frame offsets:
# 150
# 17215
# 33582
# 50654
# 70158
# 88423
# 103410
# 119237
# 134971
# 149331
# 164910
# 179177
# 197122
# 212551
# 231753
# 253773
# 269122
#
# Disc length: 3798 seconds
#
# Revision: 0
# Processed by: cddbd v1.4PL0 Copyright (c) Steve Scherf et al.
# Submitted via: Audion 3.0.2 (http://www.panic.com/audion/)
#
DISCID=2d0ed411
DTITLE=Charlélie Couture - Patch.works
DYEAR=1900
DGENRE=
TTITLE0=Comme un avion sans aile
TTITLE1=Jacobi marchait
TTITLE2=L'histoire d'un loup dans la bergerie
TTITLE3=Under control (Tc brother)
TTITLE4=Local rock
TTITLE5=L'indifférence
TTITLE6=La vague
TTITLE7=Partie sans rien dire
TTITLE8=Evolution revolution
TTITLE9=Qui a tué Benji
TTITLE10=Media panic
TTITLE11=ime moi - encore au moins
TTITLE12=Le jardinier dort
TTITLE13=La suprème dimension (Zarathoustra rock)
TTITLE14=Le fauteil en cuir (combien de temps)
TTITLE15=Les enfants du dimanche ou  l'amour divorcéMississipi dancing
TTITLE16=La ballade du mois d'aout 75
EXTD=
EXTT0=
EXTT1=
EXTT2=
EXTT3=
EXTT4=
EXTT5=
EXTT6=
EXTT7=
EXTT8=
EXTT9=
EXTT10=
EXTT11=
EXTT12=
EXTT13=
EXTT14=
EXTT15=
EXTT16=
PLAYORDER=
